<svg xmlns="http://www.w3.org/2000/svg" xmlns:xlink="http://www.w3.org/1999/xlink" viewBox="0 0 59.13 59.39"><defs><style>.cls-1{fill:url(#radial-gradient);}.cls-2{fill:url(#radial-gradient-2);}.cls-3{fill:url(#radial-gradient-3);}.cls-4{fill:url(#radial-gradient-4);}.cls-5{fill:url(#radial-gradient-5);}.cls-6{fill:url(#radial-gradient-6);}.cls-7{fill:url(#radial-gradient-7);}.cls-8{fill:url(#radial-gradient-8);}.cls-9{fill:url(#radial-gradient-9);}.cls-10{fill:url(#radial-gradient-10);}.cls-11{fill:url(#radial-gradient-11);}.cls-12{fill:url(#radial-gradient-12);}.cls-13{fill:url(#radial-gradient-13);}.cls-14{fill:url(#radial-gradient-14);}.cls-15{fill:url(#radial-gradient-15);}.cls-16{fill:url(#radial-gradient-16);}.cls-17{fill:url(#radial-gradient-17);}.cls-18{fill:url(#radial-gradient-18);}.cls-19{fill:url(#radial-gradient-19);}.cls-20{fill:url(#radial-gradient-20);}.cls-21{fill:url(#radial-gradient-21);}.cls-22{fill:url(#radial-gradient-22);}.cls-23{fill:url(#radial-gradient-23);}.cls-24{fill:url(#radial-gradient-24);}.cls-25{fill:url(#radial-gradient-25);}.cls-26{fill:url(#radial-gradient-26);}.cls-27{fill:url(#radial-gradient-27);}.cls-28{fill:url(#radial-gradient-28);}.cls-29{fill:url(#radial-gradient-29);}.cls-30{fill:url(#radial-gradient-30);}.cls-31{fill:url(#radial-gradient-31);}.cls-32{fill:url(#radial-gradient-32);}.cls-33{fill:url(#radial-gradient-33);}.cls-34{fill:url(#radial-gradient-34);}.cls-35{fill:url(#radial-gradient-35);}.cls-36{fill:url(#radial-gradient-36);}.cls-37{fill:url(#radial-gradient-37);}.cls-38{fill:url(#radial-gradient-38);}.cls-39{fill:url(#radial-gradient-39);}.cls-40{fill:url(#radial-gradient-40);}.cls-41{fill:url(#radial-gradient-41);}.cls-42{fill:url(#radial-gradient-42);}.cls-43{fill:url(#radial-gradient-43);}.cls-44{fill:url(#radial-gradient-44);}.cls-45{fill:url(#radial-gradient-45);}</style><radialGradient id="radial-gradient" cx="1516.94" cy="-1252.25" r="27.44" gradientTransform="matrix(0.35, 0.94, -0.94, 0.35, -1669.46, -961.43)" gradientUnits="userSpaceOnUse"><stop offset="0.42" stop-color="#ff5943"/><stop offset="0.8" stop-color="#ff5224"/><stop offset="0.97" stop-color="#ff3306"/></radialGradient><radialGradient id="radial-gradient-2" cx="1517.94" cy="-1236.8" r="4.02" gradientTransform="matrix(0.35, 0.94, -0.94, 0.35, -1669.46, -961.43)" gradientUnits="userSpaceOnUse"><stop offset="0.33" stop-color="#ff5224"/><stop offset="0.98" stop-color="#d42a05"/></radialGradient><radialGradient id="radial-gradient-3" cx="1514.01" cy="-1267.14" r="3.36" xlink:href="#radial-gradient-2"/><radialGradient id="radial-gradient-4" cx="1504.69" cy="-1244.75" r="4.02" xlink:href="#radial-gradient-2"/><radialGradient id="radial-gradient-5" cx="1528.99" cy="-1245.01" r="3.56" xlink:href="#radial-gradient-2"/><radialGradient id="radial-gradient-6" cx="1503.76" cy="-1259.84" r="3.56" xlink:href="#radial-gradient-2"/><radialGradient id="radial-gradient-7" cx="1531.29" cy="-1257.91" r="2.34" xlink:href="#radial-gradient-2"/><radialGradient id="radial-gradient-8" cx="1524.72" cy="-1265.08" r="2.34" xlink:href="#radial-gradient-2"/><radialGradient id="radial-gradient-9" cx="1511.27" cy="-1254.47" r="2.55" xlink:href="#radial-gradient-2"/><radialGradient id="radial-gradient-10" cx="1519.32" cy="-1260.46" r="2.36" xlink:href="#radial-gradient-2"/><radialGradient id="radial-gradient-11" cx="1525.01" cy="-1253.98" r="1.57" xlink:href="#radial-gradient-2"/><radialGradient id="radial-gradient-12" cx="1519.51" cy="-1247.6" r="1.47" xlink:href="#radial-gradient-2"/><radialGradient id="radial-gradient-13" cx="1511.46" cy="-1246.03" r="2.16" xlink:href="#radial-gradient-2"/><radialGradient id="radial-gradient-14" cx="1521.28" cy="-1243.38" r="1.57" xlink:href="#radial-gradient-2"/><radialGradient id="radial-gradient-15" cx="1510.68" cy="-1260.85" r="0.88" xlink:href="#radial-gradient-2"/><radialGradient id="radial-gradient-16" cx="1507.44" cy="-1251.82" r="1.37" xlink:href="#radial-gradient-2"/><radialGradient id="radial-gradient-17" cx="1518.33" cy="-1253" r="1.37" xlink:href="#radial-gradient-2"/><radialGradient id="radial-gradient-18" cx="1525.99" cy="-1259.97" r="2.06" xlink:href="#radial-gradient-2"/><radialGradient id="radial-gradient-19" cx="1532.96" cy="-1250.06" r="0.88" xlink:href="#radial-gradient-2"/><radialGradient id="radial-gradient-20" cx="1507.93" cy="-1237.29" r="1.08" xlink:href="#radial-gradient-2"/><radialGradient id="radial-gradient-21" cx="1500.66" cy="-1252.31" r="1.08" xlink:href="#radial-gradient-2"/><radialGradient id="radial-gradient-22" cx="1523.88" cy="-1279.19" r="2.31" xlink:href="#radial-gradient"/><radialGradient id="radial-gradient-23" cx="1536.68" cy="-1271.88" r="2.31" xlink:href="#radial-gradient"/><radialGradient id="radial-gradient-24" cx="1543.99" cy="-1259.73" r="2.31" xlink:href="#radial-gradient"/><radialGradient id="radial-gradient-25" cx="1543.8" cy="-1245.02" r="2.31" xlink:href="#radial-gradient"/><radialGradient id="radial-gradient-26" cx="1536.67" cy="-1232.27" r="2.31" xlink:href="#radial-gradient"/><radialGradient id="radial-gradient-27" cx="1524.16" cy="-1225.37" r="2.31" xlink:href="#radial-gradient"/><radialGradient id="radial-gradient-28" cx="1509.54" cy="-1225.46" r="2.31" xlink:href="#radial-gradient"/><radialGradient id="radial-gradient-29" cx="1497.2" cy="-1232.32" r="2.31" xlink:href="#radial-gradient"/><radialGradient id="radial-gradient-30" cx="1489.62" cy="-1244.65" r="2.31" xlink:href="#radial-gradient"/><radialGradient id="radial-gradient-31" cx="1489.78" cy="-1259.36" r="2.31" xlink:href="#radial-gradient"/><radialGradient id="radial-gradient-32" cx="1497.11" cy="-1272.24" r="2.31" xlink:href="#radial-gradient"/><radialGradient id="radial-gradient-33" cx="1509.45" cy="-1279.65" r="2.31" xlink:href="#radial-gradient"/><radialGradient id="radial-gradient-34" cx="1516.88" cy="-1276.72" r="1.57" xlink:href="#radial-gradient"/><radialGradient id="radial-gradient-35" cx="1528.94" cy="-1273.19" r="1.57" xlink:href="#radial-gradient"/><radialGradient id="radial-gradient-36" cx="1537.62" cy="-1264.07" r="1.57" xlink:href="#radial-gradient"/><radialGradient id="radial-gradient-37" cx="1541.24" cy="-1252.24" r="1.57" xlink:href="#radial-gradient"/><radialGradient id="radial-gradient-38" cx="1537.81" cy="-1240.38" r="1.57" xlink:href="#radial-gradient"/><radialGradient id="radial-gradient-39" cx="1528.76" cy="-1231.4" r="1.57" xlink:href="#radial-gradient"/><radialGradient id="radial-gradient-40" cx="1516.94" cy="-1227.93" r="1.57" xlink:href="#radial-gradient"/><radialGradient id="radial-gradient-41" cx="1505.06" cy="-1231.16" r="1.57" xlink:href="#radial-gradient"/><radialGradient id="radial-gradient-42" cx="1496.05" cy="-1240.17" r="1.57" xlink:href="#radial-gradient"/><radialGradient id="radial-gradient-43" cx="1492.45" cy="-1252.3" r="1.57" xlink:href="#radial-gradient"/><radialGradient id="radial-gradient-44" cx="1495.99" cy="-1264.24" r="1.57" xlink:href="#radial-gradient"/><radialGradient id="radial-gradient-45" cx="1504.82" cy="-1273.25" r="1.57" xlink:href="#radial-gradient"/></defs><g id="Layer_2" data-name="Layer 2"><g id="Layer_1-2" data-name="Layer 1"><path class="cls-1" d="M37.52,52.94l1-.37c-2.28-6.2-1.81-4.92.63-6.34,2,1.46,3.15,2.77,6.16,7l1.33-1c-6-8.57-4.77-7.82-3.16-9.55a21.21,21.21,0,0,1,4.28,3.06l.68-.82a20.88,20.88,0,0,1-3.82-3.59c1.38-1.79.45-3.39,10,1L55.34,41c-9.63-4.44-7.84-4.14-7.19-7.15a21.87,21.87,0,0,1,5.23.51l.18-1c-6.27-1.08-5-.78-5-3.48,2.13-.88,3.92-1.25,8.93-1.71l-.15-1.62c-10.36.94-8.82.36-9.64-2.29a20.24,20.24,0,0,1,5-2.31l-.36-1c-2.76,1-3.91,1.46-5.26,1.53-.91-2.14-2.83-2.12,6-8.31l-.94-1.34c-4.25,3-5.62,4-8.14,4.62-.45-.51-.92-1-1.41-1.46a21,21,0,0,1,3.05-4.28L44.77,11a20.58,20.58,0,0,1-3.58,3.82c-1.8-1.39-3.39-.45,1-10l-1.48-.69c-5.18,11.22-7.92,9.37-6.64,2l-1.05-.18A21.06,21.06,0,0,1,31.85,11c-2.17-.27-3,1.3-4-9.08L26.24,2c.45,5,.66,6.75,0,9.09a17.07,17.07,0,0,0-2.3.55,19.86,19.86,0,0,1-2.31-5l-1,.37c1,2.75,1.46,3.9,1.53,5.25C20,13.23,20,15.14,13.85,6.36l-1.33.94c6.05,8.58,4.77,7.83,3.16,9.56A21.64,21.64,0,0,1,11.4,13.8l-.68.82a21.29,21.29,0,0,1,3.82,3.58c-1.39,1.8-.45,3.4-10-1l-.68,1.48c9.57,4.42,7.84,4.13,7.19,7.15a21.71,21.71,0,0,1-5.23-.5L5.6,26.35a20.93,20.93,0,0,1,5.11,1.19c-.26,2.17,1.31,3-9.07,4l.15,1.63c5-.46,6.75-.66,9.08,0,.46,2.53,1.75,2.34-4.42,4.6l.37,1c6.21-2.29,4.92-1.82,6.35.63-1.46,2-2.78,3.14-7,6.15l.94,1.34c4.25-3,5.62-4,8.14-4.63,1.45,1.68,2.38.92-1.64,5.74l.82.69c4.07-4.89,3.12-3.92,5.55-2.49-.3,2.34-.86,4.06-3,8.7l1.48.68c4.42-9.57,4.12-7.84,7.15-7.18a21.28,21.28,0,0,1-.51,5.22l1.05.18a20.81,20.81,0,0,1,1.2-5.11c2.16.26,3-1.31,4,9.07l1.62-.15c-.45-5-.66-6.75,0-9.08C35.45,48.07,35.25,46.78,37.52,52.94Z"/><path class="cls-2" d="M17.25,41.05c-1.09.4-2.79-1.49-3.8-4.23s-.94-5.28.15-5.68,2.79,1.49,3.8,4.23S18.34,40.65,17.25,41.05Z"/><path class="cls-3" d="M44.06,26.08c-.91.33-2.33-1.25-3.17-3.54s-.79-4.42.12-4.75,2.34,1.25,3.18,3.54S45,25.74,44.06,26.08Z"/><path class="cls-4" d="M15.57,25.42c-1-.6-.57-3.11.94-5.6s3.55-4,4.54-3.42.57,3.11-.94,5.6S16.56,26,15.57,25.42Z"/><path class="cls-5" d="M31.41,44.07c-.12,1.26-2.22,2.08-4.69,1.84s-4.36-1.46-4.24-2.72,2.22-2.08,4.69-1.84S31.53,42.81,31.41,44.07Z"/><path class="cls-6" d="M36.61,15.27c-.12,1.26-2.22,2.08-4.69,1.84s-4.36-1.46-4.24-2.72,2.22-2.08,4.69-1.84S36.73,14,36.61,15.27Z"/><path class="cls-7" d="M42.34,39.77c.44.7-.32,2-1.69,2.84s-2.86,1-3.3.3.32-2,1.69-2.85S41.89,39.06,42.34,39.77Z"/><path class="cls-8" d="M45.66,30.07c.74.39.72,1.87,0,3.31s-2,2.31-2.69,1.92-.73-1.86,0-3.31S44.92,29.69,45.66,30.07Z"/><path class="cls-9" d="M30.58,26.12a2.55,2.55,0,1,1,1.52-3.28A2.54,2.54,0,0,1,30.58,26.12Z"/><path class="cls-10" d="M38.92,31.43a2.36,2.36,0,1,1,1.4-3A2.37,2.37,0,0,1,38.92,31.43Z"/><path class="cls-11" d="M34.53,38.27a1.57,1.57,0,1,1,.93-2A1.58,1.58,0,0,1,34.53,38.27Z"/><path class="cls-12" d="M26.61,35.22a1.47,1.47,0,1,1,.87-1.89A1.47,1.47,0,0,1,26.61,35.22Z"/><path class="cls-13" d="M22.59,28.85a2.16,2.16,0,1,1,1.28-2.77A2.15,2.15,0,0,1,22.59,28.85Z"/><path class="cls-14" d="M23.29,38.43a1.57,1.57,0,1,1,.93-2A1.56,1.56,0,0,1,23.29,38.43Z"/><path class="cls-15" d="M35.79,21.8a.88.88,0,0,1-.61-1.66.88.88,0,1,1,.61,1.66Z"/><path class="cls-16" d="M26.37,22.34a1.37,1.37,0,1,1,.81-1.77A1.38,1.38,0,0,1,26.37,22.34Z"/><path class="cls-17" d="M31.24,32.16a1.37,1.37,0,1,1,.81-1.77A1.37,1.37,0,0,1,31.24,32.16Z"/><path class="cls-18" d="M40.66,37.58a2.06,2.06,0,1,1,1.22-2.64A2.06,2.06,0,0,1,40.66,37.58Z"/><path class="cls-19" d="M33.35,46.44a.88.88,0,1,1,.53-1.13A.88.88,0,0,1,33.35,46.44Z"/><path class="cls-20" d="M12.8,27.54a1.08,1.08,0,1,1,.64-1.39A1.08,1.08,0,0,1,12.8,27.54Z"/><path class="cls-21" d="M24.39,15.53A1.08,1.08,0,0,1,23,14.89a1.07,1.07,0,0,1,.64-1.38,1.08,1.08,0,1,1,.75,2Z"/><path class="cls-22" d="M57.52,29.7c-1,.1-2-1-2.12-2.48S56,24.47,57,24.37s2,1,2.12,2.48S58.55,29.6,57.52,29.7Z"/><path class="cls-23" d="M53.9,44.08c-1-.35-1.34-1.77-.84-3.16s1.71-2.23,2.67-1.87,1.34,1.76.84,3.15S54.86,44.43,53.9,44.08Z"/><path class="cls-24" d="M43.62,54c-.52-.89.1-2.22,1.37-3s2.74-.63,3.26.26-.1,2.21-1.38,3S44.14,54.86,43.62,54Z"/><path class="cls-25" d="M29.39,57.56c0-1,1.17-1.88,2.65-1.9s2.69.81,2.7,1.84-1.17,1.87-2.65,1.89S29.4,58.59,29.39,57.56Z"/><path class="cls-26" d="M15.22,54.08c.45-.93,1.89-1.16,3.23-.52s2.05,1.91,1.6,2.84-1.89,1.16-3.22.52S14.78,55,15.22,54.08Z"/><path class="cls-27" d="M5.43,43.6c.88-.54,2.22,0,3,1.3s.69,2.72-.19,3.26-2.21,0-3-1.3S4.56,44.14,5.43,43.6Z"/><path class="cls-28" d="M1.52,29.47c1-.14,2,.93,2.21,2.4s-.46,2.77-1.48,2.91-2-.94-2.21-2.4S.5,29.61,1.52,29.47Z"/><path class="cls-29" d="M4.62,15.56c1,.22,1.57,1.57,1.26,3S4.49,21,3.48,20.8s-1.56-1.57-1.25-3S3.62,15.34,4.62,15.56Z"/><path class="cls-30" d="M15,5c.68.78.32,2.19-.79,3.17S11.67,9.34,11,8.57s-.33-2.19.78-3.17S14.35,4.27,15,5Z"/><path class="cls-31" d="M29.53,1.59c.11,1-1,2-2.46,2.14s-2.76-.55-2.87-1.57,1-2,2.47-2.14S29.42.57,29.53,1.59Z"/><path class="cls-32" d="M44,5.38c-.42,1-1.85,1.23-3.2.63S38.63,4.17,39,3.23,40.89,2,42.25,2.6,44.36,4.44,44,5.38Z"/><path class="cls-33" d="M54.29,15.49c-.83.61-2.21.13-3.09-1.06s-.92-2.65-.09-3.26,2.22-.14,3.09,1.05S55.12,14.88,54.29,15.49Z"/><path class="cls-34" d="M53.23,23c-.65.27-1.49-.27-1.88-1.2s-.18-1.91.47-2.18,1.49.27,1.88,1.2A1.64,1.64,0,0,1,53.23,23Z"/><path class="cls-35" d="M53.18,35.67c-.7-.08-1.18-1-1.07-2S52.86,32,53.56,32,54.74,33,54.64,34,53.88,35.74,53.18,35.67Z"/><path class="cls-36" d="M46.74,46.63c-.57-.41-.55-1.41,0-2.23s1.53-1.14,2.1-.73.55,1.41,0,2.23S47.31,47,46.74,46.63Z"/><path class="cls-37" d="M36.23,53.23c-.23-.66.35-1.47,1.31-1.8s1.91-.06,2.14.61-.35,1.46-1.31,1.8S36.46,53.9,36.23,53.23Z"/><path class="cls-38" d="M23.87,53.06c.18-.68,1.11-1,2.09-.79s1.63,1,1.46,1.68-1.11,1-2.09.79S23.7,53.74,23.87,53.06Z"/><path class="cls-39" d="M12.62,47c.42-.57,1.41-.54,2.23,0s1.13,1.54.72,2.11a1.63,1.63,0,0,1-2.23-.06C12.53,48.54,12.2,47.59,12.62,47Z"/><path class="cls-40" d="M5.88,36.61c.62-.33,1.51.11,2,1s.37,1.88-.25,2.22-1.5-.12-2-1A1.64,1.64,0,0,1,5.88,36.61Z"/><path class="cls-41" d="M5.92,24.14c.7.1,1.16,1,1,2s-.8,1.74-1.5,1.65-1.15-1-1-2S5.22,24.05,5.92,24.14Z"/><path class="cls-42" d="M11.85,12.75A1.63,1.63,0,0,1,12.16,15c-.45.9-1.33,1.37-2,1.05s-.76-1.3-.31-2.2S11.23,12.43,11.85,12.75Z"/><path class="cls-43" d="M22.87,6.16c.25.65-.3,1.48-1.24,1.85a1.64,1.64,0,0,1-2.17-.52c-.25-.65.3-1.48,1.24-1.85S22.61,5.5,22.87,6.16Z"/><path class="cls-44" d="M35.42,6c0,.7-.81,1.27-1.82,1.28S31.77,6.73,31.76,6s.81-1.28,1.82-1.29S35.41,5.3,35.42,6Z"/><path class="cls-45" d="M46.59,12.24c-.4.58-1.4.57-2.22,0s-1.17-1.51-.77-2.09a1.64,1.64,0,0,1,2.23,0C46.66,10.73,47,11.67,46.59,12.24Z"/></g></g></svg>