<svg xmlns="http://www.w3.org/2000/svg" viewBox="0 0 2354.65 1312.09"><defs><style>.cls-1{fill:#d9e9fe;}.cls-2{fill:#f2564b;}.cls-3{fill:#3a4ace;}.cls-4{fill:#3566c9;}.cls-5{fill:#6d89d0;}.cls-6{fill:#c5ddff;}.cls-7{fill:#afcdfb;}.cls-8{fill:#2c3a64;}.cls-9{fill:#163560;}.cls-10{fill:#f8fcff;}.cls-11{fill:#fc9490;}.cls-12{fill:#293eb7;}.cls-13{fill:#f48484;}.cls-14{fill:#1d4677;}.cls-15{opacity:0.5;}.cls-16{fill:#b3cff9;}.cls-17{fill:#739af0;}.cls-18{fill:#f3f8ff;}.cls-19{fill:#fb7369;}</style></defs><g id="Layer_2" data-name="Layer 2"><g id="Слой_1" data-name="Слой 1"><path class="cls-1" d="M132.11,1311.44S-102.51,1113.29,53.58,805c92.62-182.92,317.68-291.3,533.35-236.5,90.89,23.09,259-102.48,501.86-368.88C1462.35-210.08,2393.8,40.46,2228.55,681c-80,310,243.38,321.24,78.62,631.09Z"/><path class="cls-2" d="M1292.71,1285.84a17.87,17.87,0,0,1-17.83,17.82h-84.15a17.82,17.82,0,0,1,0-35.63h84.15A17.87,17.87,0,0,1,1292.71,1285.84Z"/><path class="cls-3" d="M1249.29,1285.84a17.86,17.86,0,0,1-17.81,17.82h-40.75a17.82,17.82,0,0,1,0-35.63h40.75A17.86,17.86,0,0,1,1249.29,1285.84Z"/><rect class="cls-1" x="1193.51" y="1271.98" width="85.32" height="5.62" rx="0.1"/><path class="cls-4" d="M1220.89,1235.37a19,19,0,0,1-8.42,25.35l-79.77,40a18.89,18.89,0,0,1-16.93-33.77l79.77-40A19,19,0,0,1,1220.89,1235.37Z"/><path class="cls-5" d="M1179.74,1256a18.94,18.94,0,0,1-8.42,25.35l-38.62,19.35a18.89,18.89,0,0,1-16.93-33.77l38.62-19.36A19,19,0,0,1,1179.74,1256Z"/><path class="cls-1" d="M1201.43,1235.34l-76.08,38.13a2.68,2.68,0,0,1-3.59-1.2l-.27-.54a2.68,2.68,0,0,1,1.19-3.59l76.08-38.13a2.69,2.69,0,0,1,3.6,1.2l.27.54A2.68,2.68,0,0,1,1201.43,1235.34Z"/><rect class="cls-3" x="140.35" y="1180.81" width="86.25" height="122.07"/><rect class="cls-3" x="266.11" y="1127.58" width="86.25" height="175.3"/><rect class="cls-3" x="391.87" y="971.49" width="86.25" height="331.4"/><rect class="cls-3" x="517.62" y="1031.44" width="86.25" height="271.44"/><rect class="cls-3" x="643.38" y="777.54" width="86.25" height="525.34"/><polygon class="cls-3" points="27.26 1202.75 24.76 1200.4 102.6 1117.39 186.2 1125.77 244.69 1038.49 329.35 1038.49 430.12 807.05 535.57 918.84 685.01 651.33 688 653 536.28 924.6 431.19 813.19 331.6 1041.93 246.52 1041.93 187.91 1129.39 103.94 1120.97 27.26 1202.75"/><circle class="cls-3" cx="431.19" cy="813.19" r="12.8" transform="translate(-392.39 1224.19) rotate(-88.59)"/><path class="cls-3" d="M673.71,651.33a12.8,12.8,0,1,1,12.8,12.8A12.8,12.8,0,0,1,673.71,651.33Z"/><path class="cls-3" d="M233,1040.21a12.8,12.8,0,1,1,12.8,12.8A12.8,12.8,0,0,1,233,1040.21Z"/><path class="cls-3" d="M170.68,1127.58a12.8,12.8,0,1,1,12.8,12.8A12.8,12.8,0,0,1,170.68,1127.58Z"/><path class="cls-6" d="M993.71,995.54a7,7,0,0,1-4.53.75C988.47,996.12,990.09,995.86,993.71,995.54Z"/><circle class="cls-7" cx="1610.19" cy="486.61" r="432.86"/><path class="cls-3" d="M2043.06,486.62a434.52,434.52,0,0,1-7,78c-17.62-2.55-38.88-20.24-57.48-7.53-21.21,14.5-60.79,47.47-113.33,49.53S1742.44,544,1673.39,571s-97.13-4-100.49-26.69c-5.22-35.26,23.54-38.22,19.73-57.74s13.44-69.49,72-69.49,85.56-30,93.06-43.53,52.54-3,76.55-28.52-18-70.55,0-100.57,106.59-37.31,106.59-37.31A431.15,431.15,0,0,1,2043.06,486.62Z"/><path class="cls-8" d="M1404.94,413c-21,29.6,7.5,91.14-10.51,122.66s-52.53,25.52-78,40.53c-22.16,13-31,66.78-102.09,85.64a434.94,434.94,0,0,1-26.92-268.37c14.5-14.64,34.37-27.79,61.46-34.92,85.56-22.51,117.08-66,145.6-46.53S1426,383.44,1404.94,413Z"/><path class="cls-8" d="M1727.65,249.76s-52.53-10.51-81.05,7.5-86.31,50.29-78.8,69.05,47.32,40.08,84.8,32.27c22.06-4.6,74.54-24.77,102.39-25.67C1800.39,331.43,1780.87,251.52,1727.65,249.76Z"/><path class="cls-3" d="M1477.66,764.82c-23,16.75-28.44,68.23-43.13,75.35-7.37,3.58-18.71,16.47-28.18,28.4a434.69,434.69,0,0,1-149.77-132.26c26-18,74.71-48.49,108.51-49.32,0,0,16.89-.2,29.42-34.51,4.93-13.53,10.22-25.53,16.34-34.56,9.43-13.89,20.81-20.75,35.92-15.34a26.17,26.17,0,0,1,13.61,10.52c8.74,13,9.29,33.7,33.91,53.63C1527.56,693.66,1500.63,748.07,1477.66,764.82Z"/><path class="cls-9" d="M1410.82,255.22c.61.42,1.77-.17,2.85-1.34l6.58,4.6a16.74,16.74,0,0,0-3.52,8.4l-7.19-2.27c.27-1.57,0-2.85-.66-3.07-.87-.28-2.09,1.17-2.74,3.22s-.48,3.95.38,4.22c.7.22,1.63-.69,2.31-2.14l7.79,2.46a17,17,0,0,0,1.33,6.21l-8.64,2c-.56-1.49-1.42-2.47-2.13-2.31-.88.21-1.2,2.08-.71,4.18s1.59,3.63,2.48,3.43c.71-.17,1-1.43.89-3l9.19-2.13a16.79,16.79,0,0,0,3.69,4.25l-5.78,7.67c-1.38-.78-2.67-1-3.12-.4s.41,2.36,2.14,3.66,3.56,1.76,4.1,1c.44-.58-.11-1.77-1.25-2.88l5.8-7.7a16.75,16.75,0,0,0,3.22,1.54,16,16,0,0,0,1.88.54l.9,9.83c-1.55.36-2.64,1.07-2.58,1.8.09.9,1.89,1.48,4,1.28s3.82-1.09,3.74-2c-.07-.73-1.27-1.24-2.87-1.3l-.85-9.26a16.72,16.72,0,0,0,7.28-1l3.58,9.2c-1.06.58-1.71,1.33-1.5,1.85s1.68.68,3.21.08,2.55-1.59,2.31-2.23-1.19-.63-2.37-.35L1441,284a16.63,16.63,0,0,0,4.36-3.14l6.9,6.85c-1,1.27-1.34,2.52-.82,3s2.4-.08,3.91-1.61,2.23-3.29,1.59-3.93-1.77-.13-3,.85l-7-6.94a16.62,16.62,0,0,0,1.84-3.08l9.17,1.17c0,1.68.49,3,1.24,3.06.93.12,1.92-1.61,2.21-3.87s-.24-4.17-1.17-4.29c-.76-.1-1.54,1-2,2.65l-8.6-1.09a16.89,16.89,0,0,0,.64-6l8.23-2.19c.61,1.47,1.5,2.43,2.21,2.24.87-.24,1.13-2.11.58-4.2s-1.72-3.58-2.59-3.35c-.71.19-1,1.46-.8,3l-8,2.13a16.94,16.94,0,0,0-3.11-6.67l4.49-6.39c1.41.74,2.71.9,3.13.3s-.49-2.35-2.25-3.59-3.61-1.64-4.14-.9.17,1.76,1.34,2.84l-4.18,5.95a16.57,16.57,0,0,0-6.09-3.79c-.26-.1-.53-.16-.79-.24l2.52-7.93c1.57.28,2.86,0,3.08-.66.27-.86-1.17-2.09-3.23-2.74s-3.94-.49-4.21.38c-.22.69.69,1.63,2.13,2.31l-2.58,8.11a16.69,16.69,0,0,0-6.11.19l-2.17-8c1.47-.61,2.43-1.51,2.24-2.21-.24-.88-2.12-1.13-4.2-.57s-3.58,1.72-3.34,2.6c.19.7,1.46,1,3,.79l2.17,8.07a16.89,16.89,0,0,0-5.81,3.63L1415,252c.73-1.42.89-2.71.29-3.13s-2.34.49-3.58,2.26S1410.08,254.7,1410.82,255.22Z"/><path class="cls-9" d="M1336.31,266.49c.38.27,1.14-.11,1.83-.87l4.25,3a11.07,11.07,0,0,0-1.73,3.11,11.36,11.36,0,0,0-.54,2.31l-4.65-1.47c.18-1,0-1.84-.42-2s-1.35.76-1.77,2.08-.31,2.55.25,2.73,1-.45,1.49-1.38l5,1.59a10.91,10.91,0,0,0,.86,4l-5.58,1.3c-.36-1-.92-1.6-1.38-1.49s-.77,1.34-.46,2.69,1,2.35,1.6,2.22.68-.92.58-1.95l5.94-1.38a10.58,10.58,0,0,0,2.38,2.75l-3.73,4.95c-.9-.5-1.73-.63-2-.26s.27,1.53,1.38,2.37,2.3,1.13,2.65.67-.07-1.15-.8-1.87l3.74-5a11.4,11.4,0,0,0,2.08,1,11,11,0,0,0,1.21.34l.59,6.36c-1,.22-1.71.69-1.67,1.16s1.22.95,2.61.82,2.47-.7,2.41-1.28-.82-.8-1.85-.84l-.55-6a11,11,0,0,0,4.7-.65l2.32,5.94c-.69.38-1.1.86-1,1.2s1.09.44,2.07.05,1.65-1,1.49-1.44-.77-.41-1.52-.22l-2.34-6a10.82,10.82,0,0,0,2.82-2l4.45,4.42c-.62.82-.86,1.63-.53,2s1.55-.05,2.53-1,1.44-2.13,1-2.54-1.14-.08-2,.55l-4.52-4.48a11.69,11.69,0,0,0,1.2-2l5.92.75c0,1.09.31,1.92.8,2s1.24-1,1.42-2.5-.15-2.69-.75-2.77-1,.66-1.27,1.71l-5.56-.71a10.8,10.8,0,0,0,.41-3.89l5.32-1.42c.4,1,1,1.57,1.43,1.45s.73-1.37.37-2.71-1.11-2.32-1.67-2.17-.65.95-.52,2l-5.15,1.37a11,11,0,0,0-2-4.31l2.9-4.12c.92.47,1.75.58,2,.19s-.32-1.52-1.46-2.32-2.33-1.06-2.67-.58.11,1.14.87,1.83l-2.71,3.85a10.65,10.65,0,0,0-3.93-2.45l-.51-.16,1.63-5.12c1,.18,1.84,0,2-.42s-.76-1.36-2.09-1.78-2.54-.31-2.72.25.45,1.05,1.38,1.49l-1.67,5.24a10.68,10.68,0,0,0-3.95.13l-1.4-5.2c1-.4,1.57-1,1.45-1.43s-1.37-.73-2.71-.37-2.31,1.12-2.16,1.68.94.65,2,.51l1.41,5.22a10.91,10.91,0,0,0-3.76,2.34l-4.41-3.09c.47-.91.58-1.75.19-2s-1.52.32-2.32,1.46S1335.83,266.16,1336.31,266.49Z"/><path class="cls-9" d="M1261.8,424.31c1,.68,2.87-.28,4.63-2.2l10.71,7.51a27,27,0,0,0-5.72,13.67l-11.72-3.7c.45-2.56.06-4.65-1.07-5-1.41-.44-3.41,1.91-4.46,5.26s-.78,6.42.63,6.86c1.14.36,2.65-1.13,3.75-3.48l12.69,4a27.14,27.14,0,0,0,2.17,10.1l-14.07,3.26c-.92-2.43-2.31-4-3.47-3.76-1.44.34-2,3.38-1.17,6.8s2.6,5.92,4,5.58c1.16-.27,1.71-2.32,1.46-4.9l15-3.48a27.7,27.7,0,0,0,6,6.93l-9.4,12.47c-2.26-1.27-4.36-1.6-5.08-.65-.88,1.18.67,3.85,3.47,6s5.8,2.87,6.69,1.69c.71-1-.18-2.88-2-4.7l9.43-12.54a27.53,27.53,0,0,0,5.24,2.52,27,27,0,0,0,3.06.87l1.47,16c-2.53.58-4.3,1.74-4.19,2.93.13,1.47,3.07,2.4,6.57,2.08s6.22-1.78,6.08-3.24c-.11-1.19-2.07-2-4.66-2.12L1296.42,474a27.19,27.19,0,0,0,11.84-1.63l5.84,15c-1.73.95-2.78,2.17-2.45,3,.41,1.05,2.75,1.11,5.23.14s4.16-2.59,3.76-3.64c-.33-.84-1.93-1-3.85-.56l-5.87-15.09a27.59,27.59,0,0,0,7.09-5.11l11.23,11.14c-1.57,2.06-2.18,4.1-1.33,4.94,1,1,3.89-.14,6.37-2.63s3.62-5.35,2.58-6.39c-.85-.84-2.88-.21-4.93,1.37l-11.38-11.29a28.52,28.52,0,0,0,3-5l14.92,1.9c0,2.73.79,4.82,2,5,1.52.19,3.13-2.63,3.59-6.29s-.38-6.8-1.9-7c-1.23-.16-2.51,1.67-3.2,4.31l-14-1.78a27.11,27.11,0,0,0,1-9.82l13.41-3.58c1,2.4,2.44,4,3.59,3.65,1.42-.38,1.84-3.44.94-6.83s-2.79-5.83-4.22-5.45c-1.15.31-1.63,2.38-1.3,4.95l-13,3.47a27.59,27.59,0,0,0-5.08-10.86l7.32-10.41c2.3,1.2,4.41,1.46,5.09.49.85-1.21-.79-3.82-3.66-5.84s-5.89-2.68-6.73-1.47c-.69,1,.27,2.87,2.18,4.63l-6.81,9.68a27.28,27.28,0,0,0-9.92-6.18c-.43-.15-.86-.25-1.29-.38l4.11-12.92c2.56.46,4.65.07,5-1.06.44-1.41-1.9-3.41-5.25-4.47s-6.42-.79-6.86.61c-.37,1.14,1.12,2.66,3.47,3.77l-4.2,13.2a27.27,27.27,0,0,0-10,.32l-3.52-13.09c2.4-1,4-2.45,3.64-3.61-.38-1.42-3.44-1.83-6.83-.92s-5.83,2.8-5.44,4.23c.31,1.15,2.38,1.62,5,1.29l3.54,13.14a27.63,27.63,0,0,0-9.47,5.91L1268.61,419c1.2-2.3,1.45-4.41.48-5.1-1.21-.84-3.82.8-5.83,3.68S1260.59,423.46,1261.8,424.31Z"/><path class="cls-8" d="M1424.53,687.27a10.59,10.59,0,1,1,10.59,10.59A10.59,10.59,0,0,1,1424.53,687.27Z"/><path class="cls-8" d="M1648.67,459.32a8.26,8.26,0,1,1,8.26,8.26A8.26,8.26,0,0,1,1648.67,459.32Z"/><circle class="cls-8" cx="1428.77" cy="768.54" r="16.94" transform="translate(-185.35 605.27) rotate(-22.5)"/><path class="cls-9" d="M1851.7,546.76a7,7,0,1,1,9,4.15A7,7,0,0,1,1851.7,546.76Z"/><path class="cls-9" d="M1855.29,560a7,7,0,1,1,9,4.15A7,7,0,0,1,1855.29,560Z"/><path class="cls-9" d="M1851.86,573.28a7,7,0,1,1,9,4.15A7,7,0,0,1,1851.86,573.28Z"/><path class="cls-9" d="M1840.18,580.43a7,7,0,1,1,9,4.15A7,7,0,0,1,1840.18,580.43Z"/><path class="cls-9" d="M1827.49,577.15a7,7,0,1,1,9,4.15A7,7,0,0,1,1827.49,577.15Z"/><path class="cls-9" d="M1818.7,523.13a7,7,0,1,1,6.16,7.73A7,7,0,0,1,1818.7,523.13Z"/><path class="cls-9" d="M1825.17,510.66a7,7,0,1,1,6.16,7.72A7,7,0,0,1,1825.17,510.66Z"/><path class="cls-9" d="M1834.85,500.89a7,7,0,1,1,6.16,7.72A7,7,0,0,1,1834.85,500.89Z"/><path class="cls-9" d="M1848.47,498.82a7,7,0,1,1,6.15,7.73A7,7,0,0,1,1848.47,498.82Z"/><path class="cls-9" d="M1861.79,501.33a7,7,0,1,1,6.16,7.72A7,7,0,0,1,1861.79,501.33Z"/><path class="cls-9" d="M1815.71,553.08a4,4,0,1,1,4,4A4,4,0,0,1,1815.71,553.08Z"/><path class="cls-9" d="M1796.41,526.92a4,4,0,1,1,4,4A4,4,0,0,1,1796.41,526.92Z"/><path class="cls-8" d="M1755.32,543.33h-44.19a5.5,5.5,0,0,1-5.48-5.49h0a5.49,5.49,0,0,1,5.48-5.48h44.19a5.49,5.49,0,0,1,5.48,5.48h0A5.5,5.5,0,0,1,1755.32,543.33Z"/><path class="cls-8" d="M1951,543.33h-44.19a5.51,5.51,0,0,1-5.49-5.49h0a5.5,5.5,0,0,1,5.49-5.48H1951a5.5,5.5,0,0,1,5.48,5.48h0A5.5,5.5,0,0,1,1951,543.33Z"/><path class="cls-8" d="M1831.06,462.1V417.91a5.5,5.5,0,0,1,5.49-5.48h0a5.5,5.5,0,0,1,5.49,5.48V462.1a5.5,5.5,0,0,1-5.49,5.48h0A5.5,5.5,0,0,1,1831.06,462.1Z"/><path class="cls-8" d="M1831.06,657.78V613.59a5.51,5.51,0,0,1,5.49-5.49h0a5.51,5.51,0,0,1,5.49,5.49v44.19a5.5,5.5,0,0,1-5.49,5.48h0A5.5,5.5,0,0,1,1831.06,657.78Z"/><path class="cls-10" d="M1643.45,54.64s-34.39,32-70.54,49.71-80.07,15.75-145.08,40.39c-39.93,15.13-78.94,17.25-103.1,16.61q15.43-13.57,32.11-25.68a430.87,430.87,0,0,1,253.9-82.25Q1627.24,53.42,1643.45,54.64Z"/><path class="cls-11" d="M1166.42,698.63a8.6,8.6,0,0,1,3.35-3.19c2-2,7-9,7.54-10.6,1.13-3,4.29-.39,4.84,2.64.18,1-2,3.94-2.31,5,6.34-.67,15.55-.09,28.87,3.38,0,0,10.4,2.25,1,8.58-6.24,4.22-10,3-18.91,8.82s-19.76,7-26.21,2.56L1156,714l-1-15.13Z"/><path class="cls-4" d="M931.84,533.62s-33.42,79.8,70.91,157.23c28.17,20.9,157,28.8,157,28.8s4.54-15.8-3.75-22.92c0,0-90.94-32-108.1-35.69-9.5-2-26.19-78.12-45.12-97.5S931.84,533.62,931.84,533.62Z"/><path class="cls-9" d="M856.52,1266.36s2.34,37.68,9.63,38.22c1,.07,37,.07,37,.07l46-.27s-.3-11.07-13.73-13.41-35.93-11.79-44.07-29.54C882.73,1242.74,856.52,1266.36,856.52,1266.36Z"/><path class="cls-3" d="M853.87,1269s14,4.68,24.89,4.68a91.23,91.23,0,0,0,23.23-3.32s2.63-25.44,17.1-81.49c7.59-29.38,18.43-67.16,33.85-114.1,42.64-129.73,55.6-205.62,56.79-212.81.06-.38.08-.57.08-.57l-.13-.06L878.6,803.75s16.2,178.8-4.47,247.42a287,287,0,0,0-7.5,32.88C853.57,1158.6,853.87,1269,853.87,1269Z"/><path class="cls-12" d="M866.63,1084.05l52.46,104.79c7.59-29.38,18.43-67.16,33.85-114.1,42.64-129.73,55.6-205.62,56.79-212.81,0-.22,0-.42-.05-.63L878.6,803.75s16.2,178.8-4.47,247.42A287,287,0,0,0,866.63,1084.05Z"/><path class="cls-9" d="M958.9,1266.36s2.34,37.68,9.63,38.22c1,.07,37,.07,37,.07l46-.27s-.3-11.07-13.74-13.41-35.92-11.79-44.06-29.54C985.11,1242.74,958.9,1266.36,958.9,1266.36Z"/><path class="cls-3" d="M1031.24,807.37s2.68,115.85-16.15,258.28-11.53,202.75-11.53,202.75-13.73,4.58-19.29,5.08c-14.15,1.27-28.71-3.08-28.71-3.08s-29.9-142.06-22.28-213.33-41.37-244-41.37-244Z"/><path class="cls-11" d="M940.27,536.82l25.58,16.77,37-6.89c-.52-3-3-15.35-5.18-26.55-.13-.66-.27-1.33-.39-2l-3.55-17.72-34.53-15.24-12.87-5.68c0,.2,1,10.58,1.13,12.1C949.85,518.54,940.27,536.82,940.27,536.82Z"/><path class="cls-5" d="M1040.86,813c-.53,61.16-4.6,204.23-7.6,207.13-31.86,30.75-172-8.43-179.39-42.3s28.23-434.33,82.64-450.32c11.28-3.32,71.64,16.2,71.64,16.2A383.5,383.5,0,0,1,1023.83,600c2.3,11.69,9.81,95.1,14.19,150.84,1.16,14.86,2.11,27.74,2.66,36.78C1040.91,791.35,1041,800.45,1040.86,813Z"/><path class="cls-13" d="M950,492.11c7.58,12.85,35.84,23.95,47.62,28-.13-.66-.27-1.33-.39-2l-3.55-17.72-34.53-15.24C951.55,485.12,946.9,486.82,950,492.11Z"/><path class="cls-11" d="M1006.72,498.36s-55.62,17.35-65.89-17.46-24.37-56,10.71-68.55,45.93-1.32,52.18,9.47S1020.93,493,1006.72,498.36Z"/><path class="cls-9" d="M1001.54,418.46S998,459,989.62,457.21s-16-3.07-14.75,9.14,12.84,26.31-13,28.47-62.92-64.41-55.83-77C926.53,381.44,1031.11,374.1,1001.54,418.46Z"/><path class="cls-4" d="M993.36,528.36c-.72-.3-41.41-18.56-46.17-17s-10.69,16.1-10.69,16.1l71.65,16.2S1002.51,532.21,993.36,528.36Z"/><path class="cls-14" d="M1230.21,677.62,1114.82,968.87a11.2,11.2,0,0,1-14.49,6.27l-18.16-7.2a11.2,11.2,0,0,1-6.27-14.49L1191.28,662.2a11.2,11.2,0,0,1,14.49-6.27l18.17,7.2A11.2,11.2,0,0,1,1230.21,677.62Z"/><path class="cls-9" d="M1230.21,677.62l-12.78,32.25c-24.18-5.92-50.35,13.43-50.35,13.43l24.2-61.1a11.2,11.2,0,0,1,14.49-6.27l18.17,7.2A11.2,11.2,0,0,1,1230.21,677.62Z"/><path class="cls-9" d="M1345.29,349.91c-1.19-.52-2.39-1-3.6-1.49-91.79-36.36-195.68,8.56-232,100.35A178.7,178.7,0,0,0,1210,680.82c91.79,36.36,195.69-8.57,232-100.36A178.73,178.73,0,0,0,1345.29,349.91ZM1419,571.31a154,154,0,1,1-86.41-199.8A153.25,153.25,0,0,1,1419,571.31Z"/><g class="cls-15"><path class="cls-16" d="M1419,571.31a153.93,153.93,0,1,1-86.41-199.79A153.27,153.27,0,0,1,1419,571.31Z"/><path class="cls-17" d="M1419,571.31a153.27,153.27,0,0,1-54.79,69.4,153.95,153.95,0,0,1-119.72-276.78A153.93,153.93,0,0,1,1419,571.31Z"/><path class="cls-18" d="M1301,390.83c77.71,30.79,116.08,117.93,85.69,194.63a147.77,147.77,0,0,1-17.5,32A140.37,140.37,0,0,0,1243.39,380,152.57,152.57,0,0,1,1301,390.83Z"/></g><path class="cls-4" d="M1040.86,813c-132.93-90-122.1-213.84-122.1-213.84C970.63,628.4,1022,697.66,1038,750.83c1.16,14.86,2.11,27.74,2.66,36.78C1040.91,791.35,1041,800.45,1040.86,813Z"/><path class="cls-11" d="M1156.66,773.4a8.65,8.65,0,0,1,4-2.34c2.36-1.47,8.74-6.34,9.7-7.74,3-4.45,5.28-1,3.48,3.35-.39,1-2.16,2.84-2.7,3.78,6.32.8,15.16,3.45,27.34,9.87,0,0,9.62,4.55-.92,8.58-7,2.7-10.44.65-20.43,4.29s-20.84,2.36-26.1-3.46l-8-3.72,2.5-15Z"/><path class="cls-5" d="M957.76,543.68s-112.92,21.5,33.22,185c23.38,26.15,154.45,63.66,154.45,63.66s8-14.35,1.56-23.18c0,0-95.7-67.42-106.6-68.47-9.68-.94-32.88-105.48-46.91-128.67S957.76,543.68,957.76,543.68Z"/><path class="cls-13" d="M1744.4,770.81c7.52-24.15,40.23-28.68,53.39-7.08a26.83,26.83,0,0,1,4,13.47c.72,28.32-55.13,137.94-62.55,147.64-13.49,17.65-95,60.1-95,60.1L1627,982.42a128.52,128.52,0,0,0,19.92-16.27c20.93-20.89,51.44-54.87,57-59.58C1713.52,898.5,1730.11,816.67,1744.4,770.81Z"/><path class="cls-7" d="M1436.84,1284.1l-.91.51a23.61,23.61,0,0,1-23,0l-1.93-1.09a31.66,31.66,0,0,1-16.23-27.64V982.52h59.34v272.17A33.69,33.69,0,0,1,1436.84,1284.1Z"/><path class="cls-8" d="M1450.21,1150.88v104a29.29,29.29,0,0,1-15,25.56l-.78.43a20.46,20.46,0,0,1-20,0l-1.68-.93a27.55,27.55,0,0,1-14.1-24v-105s14.45-4.06,25.78,0C1431.88,1153.56,1450.21,1150.88,1450.21,1150.88Z"/><rect class="cls-3" x="1390.61" y="975.6" width="67.52" height="10.02"/><path class="cls-7" d="M1528.5,1284.1l-.9.51a23.61,23.61,0,0,1-23,0l-1.94-1.09a31.66,31.66,0,0,1-16.23-27.64V982.52h59.34v272.17A33.67,33.67,0,0,1,1528.5,1284.1Z"/><path class="cls-19" d="M1541.88,1096.92v157.92a29.31,29.31,0,0,1-15,25.56l-.79.43a20.46,20.46,0,0,1-20,0l-1.68-.93a27.55,27.55,0,0,1-14.1-24V1096.92s14.89-3.36,25.72,0C1525.38,1099.82,1541.88,1096.92,1541.88,1096.92Z"/><rect class="cls-8" x="1482.27" y="975.6" width="67.52" height="10.02"/><path class="cls-7" d="M1678.05,1245.42l-.84.6a23.61,23.61,0,0,1-22.89,2.42l-2-.87a31.67,31.67,0,0,1-19-25.78L1604.42,950l59-6.26,28.69,270.66A33.7,33.7,0,0,1,1678.05,1245.42Z"/><path class="cls-3" d="M1674.65,1086.46l13.62,128.45a29.28,29.28,0,0,1-12.22,27l-.74.51a20.49,20.49,0,0,1-19.89,2.11l-1.76-.75a27.53,27.53,0,0,1-16.56-22.41l-13.72-129.47s14.34-4.71,22.47-3C1656.38,1091.16,1674.65,1086.46,1674.65,1086.46Z"/><rect class="cls-12" x="1599.9" y="939.93" width="67.52" height="10.02" transform="translate(-90.51 177.47) rotate(-6.05)"/><path class="cls-8" d="M1720.75,632.25c-.45-1.82,39.52,18.07,41.55,20.32,18.74,20.79,13.4,47.93,2.67,48.19-6.88.16-5.55,11.6-5.55,11.6l-76.64-32.42S1692,626.13,1720.75,632.25Z"/><path class="cls-8" d="M1711.31,636.45s-2.74-29.86,30.62-29.86c0,0-10.11,2.75-15.33,8.23,0,0,21.27-12.49,44.43,6.7s8.76,67.33,15.8,76.47,34.46,11,31.11,40.52-87,66.56-81.64,91c0,0-32.79-48.2-9.35-70.19,0,0-11.43,10.76-12.59,23.56,0,0-3.1-25,12.79-33,14.07-7.07,25.6-32.93,24.38-37.55S1711.31,636.45,1711.31,636.45Z"/><path class="cls-3" d="M1805,1282l16.59-2.44s55.76-44.31,64.07-127a148.28,148.28,0,0,0,.39-25.57,4.52,4.52,0,0,1,.58-2.82l0,0c1.78-2.74,6.23-9.59,12.24-19.34,5.93-9.6,16.07-27.76,27.24-48.14,20.1-36.69,43.51-80.57,51.54-94.55,25.59-44.55,13.26-74.5,13.26-74.5s-71.38-7.06-90.94-24.16l-7,10.85s-15.46,68.46-14.73,68.78q-1.14,3.49-2.33,7.11c-12.2,37.67-26.24,84.75-33.89,123.09-4.3,21.58-6.58,40.38-5.36,53.19.42,4.39-.09,11.14-1.26,19.48C1828.48,1195.1,1805,1282,1805,1282Z"/><path class="cls-12" d="M1770.22,1303h69.2s1.65-10.55-2-18.55c-3.46-7.68-8.4-7.92-.63-20-4.4,4.53-18.53,6.4-28.53,5.06-1.23,2-7.91,15.32-12,18.26C1791.78,1291.06,1771.62,1289.9,1770.22,1303Z"/><path class="cls-12" d="M1875.9,950.21c6,33.34,20.33,88.82,50.24,106.47,20.1-36.69,43.51-80.57,51.54-94.55,25.59-44.55,13.26-74.5,13.26-74.5s-71.38-7.06-90.94-24.16l-7,10.85s-15.46,68.46-14.73,68.78Q1877.09,946.59,1875.9,950.21Z"/><path class="cls-3" d="M1924.43,892.78l-.23-12.94c25.78,3.25,88.9-30.81,88.9-30.81s27,17.94,30.67,69.17c1.8,25,13.2,130.77,14.47,162.35.45,11.45.61,19.62.66,22.88,0,0,0,0,0,0a4.48,4.48,0,0,0,1.09,2.66,146.2,146.2,0,0,1,14,21.42c39.35,73.2,18.77,172.66,18.77,172.66l-9.13-2.32s-33.27-103.11-55-147.71c-3.69-7.57-7-13.45-9.85-16.86-8.18-9.93-16.8-26.79-25.29-47.08-16.06-38.37-31.66-89-42.78-128.2C1949.89,958.18,1924.43,892.78,1924.43,892.78Z"/><path class="cls-11" d="M1773.55,806.41c42.15-9.68,15.22-68.91,12.78-67.86-5.84-1.2-18.67-11.45-30.15-31.48l-1.54,1.35-25.89,22.69s6,8.83,11,17.48c3.93,6.77,7.27,13.44,6.74,15.73C1744.43,766,1762.3,809,1773.55,806.41Z"/><path class="cls-2" d="M1746.93,762.41s-7.41,14.62-11.36,27.29-13.85,53-13.85,53,20.4,23.29,48.79,21.93c0,0,15.26-23.89,9.88-45.47S1746.93,762.41,1746.93,762.41Z"/><path class="cls-13" d="M1728.75,731.12s6,8.82,11,17.48c16.09-9.93,16.11-29.85,14.87-40.18Z"/><path class="cls-11" d="M1728,742.49s39.08-21.75,25.16-45.88-18.24-43.18-43.78-30.32-25,24.84-22.35,34S1717.5,747.52,1728,742.49Z"/><path class="cls-8" d="M1680.46,686.24c1.79-10.71,7.23-11.73,11-11,14.44-23.87,38-14.55,38-14.55a53.26,53.26,0,0,0,30.81,18.5s-4.54,8.44-23.22,13.66c-5.71,1.6-12.19.63-18.44-1.47a104.41,104.41,0,0,0,26.52,10c-24.62,2.25-48.05-20.26-50.48-22.67-1.13,3.49-3.13,10.79-1.93,16.13,1.62,7.26,8.06,20.4,4.13,22.1C1696.88,716.92,1677.77,702.31,1680.46,686.24Z"/><path class="cls-12" d="M2037.71,1303h69.19s1.66-10.55-2-18.55c-3.47-7.68-8.89-11.17-7.59-20.46-4.4,4.53-11.56,9.6-21.57,8.25-1.22,2-7.91,12.63-12,15.57C2059.26,1291.06,2039.1,1289.9,2037.71,1303Z"/><path class="cls-19" d="M1768.59,853.36c8.9,3.11,21.39,4.82,34.17,6.2,18.2,2,37,3.34,46.82,7.27a62.77,62.77,0,0,1,13.13,7.17h0a3,3,0,0,1,.39.29,41.92,41.92,0,0,1,5.42,4.68,29.69,29.69,0,0,1,6.35,9.42c3.61,8.92-1.17,33.63-4.23,47.14a12.26,12.26,0,0,0,6.28,13.62q10.38,5.37,20.4,9.91l1,.47c-.06-1.38-.09-2.74-.09-4.07a124.92,124.92,0,0,1,1.18-17.08c1.64,9.41,7.84,19.57,13.61,27.39,92.86,37.26,157.74,21.06,156.67,2.5-3.66-64.44-47.12-119.26-47.12-119.26-81-94.25-245-119.06-245-119.06s-7.85-1-17.33,10.44c-13.63,16.4-14.3,20.68-14.3,20.68S1742.39,844.22,1768.59,853.36Z"/><path class="cls-2" d="M1802.77,859.56c18.19,2,37,3.35,46.82,7.27,4-60.09-24.34-105.29-24.34-105.29S1806.75,836.82,1802.77,859.56Z"/><path class="cls-11" d="M1783.66,749.91s45.6,4.51,49.26,34.14-43.72,150.31-50.5,161.24c-12.36,19.89-85.09,88.09-85.09,88.09l-13.4-8.13s51.59-87.33,59.57-95.5C1756,916.91,1768.22,760.18,1783.66,749.91Z"/><path class="cls-19" d="M1760.3,806.52s-4.69-76.4,53.79-57.92S1805,898.47,1805,898.47s-34.32-1.7-46.49-31.64Z"/><path class="cls-2" d="M1870.64,935.54a12.26,12.26,0,0,0,6.28,13.62q10.38,5.37,20.4,9.91c.35-1.14.67-2.33,1-3.6a62.59,62.59,0,0,0,1.18-17.08c-1.55-28.53-21-50.13-30.94-59.41a29.69,29.69,0,0,1,6.35,9.42C1878.48,897.32,1873.7,922,1870.64,935.54Z"/><path class="cls-2" d="M1777.62,730s-7.14-9-12-8.73c0,0-19.52,27.31-19.67,39.85C1746,761.08,1770.32,728.69,1777.62,730Z"/><path class="cls-11" d="M1683.93,1025.25s-7.55,6.71-13.29,8.13-12.27,17.86-13.31,20.2,5.48-1,8.09-5,4.39-5.57,5.15-4.7-.45,11.83-4.8,17.92-7,11.49-3.83,11.14,21.75-4.87,25.57-16.18,1-11.71,9.82-23.34S1683.93,1025.25,1683.93,1025.25Z"/><rect class="cls-3" x="1357.56" y="1261.89" width="356.82" height="41.7"/></g></g></svg>